<svg width="29" height="29" viewBox="0 0 29 29" fill="none" xmlns="http://www.w3.org/2000/svg">
<path d="M22.9462 22.9596H22.9577M22.9462 22.9596C22.1938 23.7058 20.8302 23.5199 19.8739 23.5199C18.7001 23.5199 18.1349 23.7495 17.2971 24.5873C16.5838 25.3007 15.6276 26.5846 14.4993 26.5846C13.3711 26.5846 12.4149 25.3007 11.7015 24.5873C10.8638 23.7495 10.2986 23.5199 9.12475 23.5199C8.1685 23.5199 6.8049 23.7058 6.05248 22.9596C5.29404 22.2076 5.48069 20.8383 5.48069 19.8758C5.48069 18.6597 5.21471 18.1004 4.3486 17.2343C3.06023 15.946 2.41604 15.3017 2.41602 14.5013C2.41603 13.7008 3.0602 13.0566 4.34856 11.7683C5.12172 10.9951 5.48069 10.229 5.48069 9.12671C5.48069 8.17042 5.29486 6.8068 6.04102 6.05438C6.79312 5.29595 8.16237 5.48262 9.12478 5.48262C10.227 5.48262 10.9932 5.12367 11.7663 4.35054C13.0547 3.06216 13.6988 2.41797 14.4993 2.41797C15.2999 2.41797 15.944 3.06216 17.2324 4.35054C18.0053 5.12351 18.7714 5.48262 19.8739 5.48262C20.8302 5.48262 22.1939 5.29679 22.9463 6.04297C23.7047 6.79507 23.518 8.16431 23.518 9.12671C23.518 10.3429 23.7841 10.9021 24.6501 11.7683C25.9385 13.0566 26.5827 13.7008 26.5827 14.5013C26.5827 15.3017 25.9385 15.946 24.6501 17.2343C23.7839 18.1004 23.518 18.6597 23.518 19.8758C23.518 20.8383 23.7047 22.2076 22.9462 22.9596Z" stroke="#85CE81" stroke-width="1.5"/>
<path d="M10.875 15.5802L13.05 17.5221L18.125 11.4805" stroke="#85CE81" stroke-width="1.5" stroke-linecap="round" stroke-linejoin="round"/>
</svg>
