<svg width="56" height="28" viewBox="0 0 56 28" fill="none" xmlns="http://www.w3.org/2000/svg">
<path d="M12.3757 13.4988C12.3757 15.9058 10.4321 17.857 8.03455 17.857C5.63697 17.857 3.69336 15.9058 3.69336 13.4988C3.69336 11.0918 5.63697 9.14062 8.03455 9.14062C10.4321 9.14062 12.3757 11.0918 12.3757 13.4988Z" stroke="#85CE81" stroke-width="3"/>
<path d="M52.8933 7.6902C52.8933 10.0972 50.9496 12.0484 48.5521 12.0484C46.1546 12.0484 44.2109 10.0972 44.2109 7.6902C44.2109 5.28324 46.1546 3.33203 48.5521 3.33203C50.9496 3.33203 52.8933 5.28324 52.8933 7.6902Z" stroke="#85CE81" stroke-width="3"/>
<path d="M32.6336 19.3113C32.6336 21.7183 30.6899 23.6695 28.2924 23.6695C25.8949 23.6695 23.9512 21.7183 23.9512 19.3113C23.9512 16.9043 25.8949 14.9531 28.2924 14.9531C30.6899 14.9531 32.6336 16.9043 32.6336 19.3113Z" stroke="#85CE81" stroke-width="3"/>
<path d="M12.2109 14.6974L24.1192 18.1131M32.0645 17.1481L44.7836 9.85156" stroke="#85CE81" stroke-width="3"/>
</svg>
