<svg width="51" height="36" viewBox="0 0 51 36" fill="none" xmlns="http://www.w3.org/2000/svg">
<rect x="1" y="-1" width="34" height="7.19149" rx="3.59574" transform="matrix(1 0 0 -1 5.66016 32.4688)" stroke="#85CE81" stroke-width="2"/>
<rect x="1" y="-1" width="33.234" height="7.19149" rx="3.59574" transform="matrix(1 0 0 -1 9.49023 24.8086)" stroke="#85CE81" stroke-width="2"/>
<rect x="1" y="-1" width="33.234" height="7.19149" rx="3.59574" transform="matrix(1 0 0 -1 4.12695 16.3828)" stroke="#85CE81" stroke-width="2"/>
<rect x="1" y="-1" width="33.234" height="7.19149" rx="3.59574" transform="matrix(1 0 0 -1 8.72266 7.19141)" stroke="#85CE81" stroke-width="2"/>
<path d="M17 27C17 22.5817 13.4183 19 9 19C4.58172 19 1 22.5817 1 27C1 31.4183 4.58172 35 9 35C13.4183 35 17 31.4183 17 27Z" fill="#DEF5DD" stroke="#85CE81" stroke-width="2" stroke-linejoin="round"/>
<path d="M10.8025 25.4988C10.8863 24.3748 9.33855 23.457 8.15573 24.0728C6.67815 24.8419 6.80698 26.7861 8.63191 26.889C9.44399 26.9347 10.1543 26.8372 10.637 27.4185C11.1197 27.9998 11.3289 29.4801 9.90599 29.9825C8.48311 30.4848 7 29.5889 7 28.4961M8.97679 23V23.869V23ZM8.97679 30.307V31V30.307Z" fill="#DEF5DD"/>
<path d="M10.8025 25.4988C10.8863 24.3748 9.33855 23.457 8.15573 24.0728C6.67815 24.8419 6.80698 26.7861 8.63191 26.889C9.44399 26.9347 10.1543 26.8372 10.637 27.4185C11.1197 27.9998 11.3289 29.4801 9.90599 29.9825C8.48311 30.4848 7 29.5889 7 28.4961M8.97679 23V23.869M8.97679 30.307V31" stroke="#85CE81" stroke-width="2" stroke-linecap="round" stroke-linejoin="round"/>
<g clip-path="url(#clip0_3048_1452)">
<path d="M42.0859 26.8828L48.9431 32.971" stroke="#85CE81" stroke-width="2.5" stroke-linecap="round" stroke-linejoin="round"/>
<path d="M44.1434 21.3017C44.1434 17.0987 40.6896 13.6914 36.4291 13.6914C32.1686 13.6914 28.7148 17.0987 28.7148 21.3017C28.7148 25.5048 32.1686 28.912 36.4291 28.912C40.6896 28.912 44.1434 25.5048 44.1434 21.3017Z" fill="#DEF5DD" stroke="#85CE81" stroke-width="2.5" stroke-linejoin="round"/>
</g>
<defs>
<clipPath id="clip0_3048_1452">
<rect width="24" height="23" fill="white" transform="translate(27 12)"/>
</clipPath>
</defs>
</svg>
