<svg width="40" height="40" viewBox="0 0 40 40" fill="none" xmlns="http://www.w3.org/2000/svg">
<path d="M33.36 3.33203C31.5043 3.33203 30 7.80918 30 13.332H33.36C34.9793 13.332 35.789 13.332 36.2902 12.7729C36.7915 12.2138 36.7042 11.4776 36.5297 10.005C36.069 6.11775 34.8238 3.33203 33.36 3.33203Z" stroke="#85CE81" stroke-width="3"/>
<path d="M30.0007 13.4225V31.075C30.0007 33.5945 30.0007 34.8542 29.2307 35.35C27.9725 36.1605 26.0275 34.461 25.0492 33.8442C24.2408 33.3344 23.8368 33.0795 23.3882 33.0649C22.9035 33.0489 22.4921 33.2934 21.6188 33.8442L18.434 35.8527C17.5748 36.3944 17.1453 36.6654 16.6673 36.6654C16.1893 36.6654 15.7598 36.3944 14.9007 35.8527L11.7159 33.8442C10.9076 33.3344 10.5034 33.0795 10.0549 33.0649C9.57018 33.0489 9.15887 33.2934 8.28543 33.8442C7.30723 34.461 5.3621 36.1605 4.1039 35.35C3.33398 34.8542 3.33398 33.5945 3.33398 31.075V13.4225C3.33398 8.66578 3.33398 6.28745 4.79845 4.80975C6.26292 3.33203 8.61993 3.33203 13.334 3.33203H33.334" stroke="#85CE81" stroke-width="3" stroke-linecap="round" stroke-linejoin="round"/>
<path d="M10 10H23.3333" stroke="#85CE81" stroke-width="3" stroke-linecap="round" stroke-linejoin="round"/>
<path d="M13.3333 16.668H10" stroke="#85CE81" stroke-width="3" stroke-linecap="round" stroke-linejoin="round"/>
<path d="M20.834 18.1263C19.4533 18.1263 18.334 19.1056 18.334 20.3138C18.334 21.522 19.4533 22.5013 20.834 22.5013C22.2147 22.5013 23.334 23.4806 23.334 24.6888C23.334 25.897 22.2147 26.8763 20.834 26.8763M20.834 18.1263C21.9225 18.1263 22.8485 18.735 23.1917 19.5846M20.834 18.1263V16.668M20.834 26.8763C19.7455 26.8763 18.8195 26.2676 18.4763 25.418M20.834 26.8763V28.3346" stroke="#85CE81" stroke-width="3" stroke-linecap="round"/>
</svg>
