<svg width="46" height="51" viewBox="0 0 46 51" fill="none" xmlns="http://www.w3.org/2000/svg">
<path d="M11.0309 19.3906L8.7358 20.9014C7.09057 21.9845 6.26795 22.526 5.82214 23.3519C5.37633 24.1777 5.37964 25.1484 5.38623 27.0896C5.3942 29.4266 5.41619 31.8079 5.47711 34.2175C5.62161 39.9343 5.69388 42.7927 7.82247 44.8946C9.95106 46.9966 12.885 47.0689 18.7527 47.2138C22.4032 47.3037 26.0213 47.3037 29.6716 47.2138C35.5395 47.0689 38.4733 46.9966 40.6019 44.8946C42.7305 42.7927 42.8028 39.9343 42.9472 34.2175C43.0082 31.8079 43.03 29.4266 43.0381 27.0896C43.0447 25.1484 43.0479 24.1777 42.6022 23.3519C42.1563 22.526 41.3338 21.9845 39.6884 20.9014L37.3934 19.3906" stroke="#85CE81" stroke-width="2.5" stroke-linejoin="round"/>
<path d="M5.37891 24.9688L18.3964 32.6811C21.2285 34.359 22.6445 35.1979 24.2093 35.1979C25.7741 35.1979 27.1902 34.359 30.0223 32.6811L43.0397 24.9688" stroke="#85CE81" stroke-width="2.5" stroke-linejoin="round"/>
<path d="M11.2988 28.6875V13.3875C11.2988 8.57917 11.2988 6.175 12.3794 4.68126C13.4599 3.1875 15.1991 3.1875 18.6773 3.1875H29.745C33.2231 3.1875 34.9622 3.1875 36.0428 4.68126C37.1234 6.175 37.1234 8.57917 37.1234 13.3875V28.6875" stroke="#85CE81" stroke-width="2.5"/>
<g clip-path="url(#clip0_3048_1394)">
<path d="M31.7299 13.6611L31.3316 12.9785C31.0303 12.4623 30.8798 12.2042 30.6234 12.1012C30.3671 11.9983 30.0773 12.0795 29.4976 12.242L28.5129 12.5159C28.1428 12.6001 27.7544 12.5523 27.4165 12.3809L27.1446 12.226C26.8548 12.0427 26.6319 11.7725 26.5085 11.4549L26.2391 10.6601C26.0619 10.1341 25.9732 9.87115 25.7623 9.72073C25.5514 9.57031 25.2712 9.57031 24.7108 9.57031H23.8112C23.2509 9.57031 22.9707 9.57031 22.7597 9.72073C22.5488 9.87115 22.4602 10.1341 22.283 10.6601L22.0135 11.4549C21.8901 11.7725 21.6672 12.0427 21.3774 12.226L21.1056 12.3809C20.7676 12.5523 20.3793 12.6001 20.0092 12.5159L19.0245 12.242C18.4448 12.0795 18.1549 11.9983 17.8986 12.1012C17.6423 12.2042 17.4917 12.4623 17.1904 12.9785L16.7921 13.6611C16.5097 14.145 16.3685 14.387 16.3959 14.6446C16.4233 14.9021 16.6124 15.1097 16.9904 15.5248L17.8225 16.4434C18.0258 16.6976 18.1702 17.1406 18.1702 17.539C18.1702 17.9375 18.0259 18.3804 17.8225 18.6347L16.9904 19.5532C16.6124 19.9684 16.4233 20.1759 16.3959 20.4335C16.3685 20.6911 16.5097 20.933 16.7921 21.4169L17.1904 22.0995C17.4917 22.6157 17.6423 22.8739 17.8986 22.9768C18.1549 23.0797 18.4448 22.9985 19.0245 22.836L20.0092 22.5622C20.3793 22.4778 20.7677 22.5257 21.1057 22.6972L21.3775 22.8521C21.6673 23.0354 21.8901 23.3056 22.0135 23.6232L22.283 24.4181C22.4602 24.944 22.5488 25.207 22.7597 25.3574C22.9707 25.5078 23.2509 25.5078 23.8112 25.5078H24.7108C25.2712 25.5078 25.5514 25.5078 25.7623 25.3574C25.9732 25.207 26.0619 24.944 26.2391 24.4181L26.5086 23.6232C26.6319 23.3056 26.8548 23.0354 27.1446 22.8521L27.4164 22.6972C27.7543 22.5257 28.1427 22.4778 28.5129 22.5622L29.4976 22.836C30.0773 22.9985 30.3671 23.0797 30.6234 22.9768C30.8798 22.8739 31.0303 22.6157 31.3316 22.0995L31.7299 21.4169C32.0123 20.933 32.1535 20.6911 32.1261 20.4335C32.0987 20.1759 31.9097 19.9684 31.5317 19.5532L30.6995 18.6347C30.4962 18.3804 30.3518 17.9375 30.3518 17.539C30.3518 17.1406 30.4963 16.6976 30.6995 16.4434L31.5317 15.5248C31.9097 15.1097 32.0987 14.9021 32.1261 14.6446C32.1535 14.387 32.0123 14.145 31.7299 13.6611Z" stroke="#85CE81" stroke-width="2.5" stroke-linecap="round"/>
<path d="M27.0495 17.5312C27.0495 19.0716 25.7849 20.3203 24.2249 20.3203C22.665 20.3203 21.4004 19.0716 21.4004 17.5312C21.4004 15.9909 22.665 14.7422 24.2249 14.7422C25.7849 14.7422 27.0495 15.9909 27.0495 17.5312Z" stroke="#85CE81" stroke-width="2.5"/>
</g>
<path d="M1.61328 14L11.2975 14" stroke="#85CE81" stroke-width="2" stroke-linecap="round"/>
<path d="M4.03516 10L11.2983 10" stroke="#85CE81" stroke-width="2" stroke-linecap="round"/>
<path d="M6.45703 6.375L11.2991 6.375" stroke="#85CE81" stroke-width="2" stroke-linecap="round"/>
<defs>
<clipPath id="clip0_3048_1394">
<rect width="19.3684" height="19.125" fill="white" transform="translate(14.5254 7.96875)"/>
</clipPath>
</defs>
</svg>
