<svg width="45" height="45" viewBox="0 0 45 45" fill="none" xmlns="http://www.w3.org/2000/svg">
<path d="M26.25 4.52134C24.7834 4.02176 23.2058 3.75 21.5625 3.75C13.7702 3.75 7.45337 9.86081 7.45337 17.3989C7.45318 19.3494 7.33635 21.1828 6.16052 22.8638C5.26283 24.1314 4.05115 25.4297 3.8061 26.9888C3.40738 29.5258 5.19 31.2866 7.3726 32.1641C15.7403 35.5286 27.3848 35.5286 35.7523 32.1641C37.935 31.2866 39.7176 29.5258 39.3189 26.9888C39.1695 26.0379 38.6604 25.1841 38.0824 24.375" stroke="#85CE81" stroke-width="3" stroke-linecap="round" stroke-linejoin="round"/>
<path d="M15.9375 39.375C17.4302 40.5411 19.4016 41.25 21.5625 41.25C23.7234 41.25 25.6948 40.5411 27.1875 39.375" stroke="#85CE81" stroke-width="3" stroke-linecap="round" stroke-linejoin="round"/>
<path d="M39 13.5C39 9.91015 36.0898 7 32.5 7C28.9101 7 26 9.91015 26 13.5C26 17.0898 28.9101 20 32.5 20C36.0898 20 39 17.0898 39 13.5Z" stroke="#85CE81" stroke-width="2.5"/>
<path d="M30 13.3333L31.5625 15L35 11" stroke="#85CE81" stroke-width="2.5" stroke-linecap="round" stroke-linejoin="round"/>
</svg>
