<svg width="45" height="46" viewBox="0 0 45 46" fill="none" xmlns="http://www.w3.org/2000/svg">
<path d="M28.8789 13.6172C28.8789 13.6172 29.8372 14.5755 30.7956 16.4922C30.7956 16.4922 33.8396 11.7005 36.5456 10.7422" stroke="#85CE81" stroke-width="3" stroke-linecap="round" stroke-linejoin="round"/>
<path d="M19.3235 4.04477C14.5347 3.84202 10.8351 4.39368 10.8351 4.39368C8.49894 4.56071 4.02197 5.87041 4.022 13.5192C4.02204 21.103 3.97248 30.4525 4.022 34.1797C4.022 36.4569 5.43194 41.7685 10.3121 42.0532C16.2439 42.3993 26.9286 42.4729 31.8308 42.0532C33.1432 41.9792 37.5122 40.949 38.0652 36.1954C38.6381 31.2709 38.524 27.8485 38.524 27.034" stroke="#85CE81" stroke-width="3" stroke-linecap="round" stroke-linejoin="round"/>
<path d="M42.3316 13.6185C42.3316 18.9112 38.0369 23.2019 32.739 23.2019C27.4412 23.2019 23.1465 18.9112 23.1465 13.6185C23.1465 8.32577 27.4412 4.03516 32.739 4.03516C38.0369 4.03516 42.3316 8.32577 42.3316 13.6185Z" stroke="#85CE81" stroke-width="3" stroke-linecap="round"/>
<path d="M13.5449 25.1172H21.2115" stroke="#85CE81" stroke-width="3" stroke-linecap="round"/>
<path d="M13.5449 32.7852H28.8782" stroke="#85CE81" stroke-width="3" stroke-linecap="round"/>
</svg>
